<svg xmlns="http://www.w3.org/2000/svg" viewBox="0 0 805 187" font-family="ui-monospace, SFMono-Regular, Menlo, Consolas, monospace" font-size="11">
<rect width="805" height="187" rx="10" fill="#0d1117" stroke="#30363d"/>
<style>.c{animation:dr .45s ease-out both}@keyframes dr{from{opacity:0;transform:translateY(-7px)}to{opacity:1;transform:none}}</style>
<text x="76" y="30" fill="#8b949e">Aug</text>
<text x="146" y="30" fill="#8b949e">Sep</text>
<text x="202" y="30" fill="#8b949e">Oct</text>
<text x="258" y="30" fill="#8b949e">Nov</text>
<text x="328" y="30" fill="#8b949e">Dec</text>
<text x="384" y="30" fill="#8b949e">Jan</text>
<text x="440" y="30" fill="#8b949e">Feb</text>
<text x="496" y="30" fill="#8b949e">Mar</text>
<text x="566" y="30" fill="#8b949e">Apr</text>
<text x="622" y="30" fill="#8b949e">May</text>
<text x="692" y="30" fill="#8b949e">Jun</text>
<text x="748" y="30" fill="#8b949e">Jul</text>
<text x="18" y="67" fill="#8b949e">Mon</text>
<text x="18" y="95" fill="#8b949e">Wed</text>
<text x="18" y="123" fill="#8b949e">Fri</text>
<rect x="48" y="44" width="11" height="11" rx="2.5" fill="#161b22" class="c" style="animation-delay:0.000s"/>
<rect x="48" y="58" width="11" height="11" rx="2.5" fill="#161b22" class="c" style="animation-delay:0.022s"/>
<rect x="48" y="72" width="11" height="11" rx="2.5" fill="#161b22" class="c" style="animation-delay:0.044s"/>
<rect x="48" y="86" width="11" height="11" rx="2.5" fill="#161b22" class="c" style="animation-delay:0.066s"/>
<rect x="48" y="100" width="11" height="11" rx="2.5" fill="#161b22" class="c" style="animation-delay:0.088s"/>
<rect x="48" y="114" width="11" height="11" rx="2.5" fill="#161b22" class="c" style="animation-delay:0.110s"/>
<rect x="48" y="128" width="11" height="11" rx="2.5" fill="#161b22" class="c" style="animation-delay:0.132s"/>
<rect x="62" y="44" width="11" height="11" rx="2.5" fill="#161b22" class="c" style="animation-delay:0.022s"/>
<rect x="62" y="58" width="11" height="11" rx="2.5" fill="#161b22" class="c" style="animation-delay:0.044s"/>
<rect x="62" y="72" width="11" height="11" rx="2.5" fill="#161b22" class="c" style="animation-delay:0.066s"/>
<rect x="62" y="86" width="11" height="11" rx="2.5" fill="#161b22" class="c" style="animation-delay:0.088s"/>
<rect x="62" y="100" width="11" height="11" rx="2.5" fill="#161b22" class="c" style="animation-delay:0.110s"/>
<rect x="62" y="114" width="11" height="11" rx="2.5" fill="#161b22" class="c" style="animation-delay:0.132s"/>
<rect x="62" y="128" width="11" height="11" rx="2.5" fill="#161b22" class="c" style="animation-delay:0.154s"/>
<rect x="76" y="44" width="11" height="11" rx="2.5" fill="#161b22" class="c" style="animation-delay:0.044s"/>
<rect x="76" y="58" width="11" height="11" rx="2.5" fill="#161b22" class="c" style="animation-delay:0.066s"/>
<rect x="76" y="72" width="11" height="11" rx="2.5" fill="#161b22" class="c" style="animation-delay:0.088s"/>
<rect x="76" y="86" width="11" height="11" rx="2.5" fill="#161b22" class="c" style="animation-delay:0.110s"/>
<rect x="76" y="100" width="11" height="11" rx="2.5" fill="#161b22" class="c" style="animation-delay:0.132s"/>
<rect x="76" y="114" width="11" height="11" rx="2.5" fill="#161b22" class="c" style="animation-delay:0.154s"/>
<rect x="76" y="128" width="11" height="11" rx="2.5" fill="#161b22" class="c" style="animation-delay:0.176s"/>
<rect x="90" y="44" width="11" height="11" rx="2.5" fill="#161b22" class="c" style="animation-delay:0.066s"/>
<rect x="90" y="58" width="11" height="11" rx="2.5" fill="#39d353" class="c" style="animation-delay:0.088s"/>
<rect x="90" y="72" width="11" height="11" rx="2.5" fill="#161b22" class="c" style="animation-delay:0.110s"/>
<rect x="90" y="86" width="11" height="11" rx="2.5" fill="#161b22" class="c" style="animation-delay:0.132s"/>
<rect x="90" y="100" width="11" height="11" rx="2.5" fill="#161b22" class="c" style="animation-delay:0.154s"/>
<rect x="90" y="114" width="11" height="11" rx="2.5" fill="#161b22" class="c" style="animation-delay:0.176s"/>
<rect x="90" y="128" width="11" height="11" rx="2.5" fill="#006d32" class="c" style="animation-delay:0.198s"/>
<rect x="104" y="44" width="11" height="11" rx="2.5" fill="#0e4429" class="c" style="animation-delay:0.088s"/>
<rect x="104" y="58" width="11" height="11" rx="2.5" fill="#161b22" class="c" style="animation-delay:0.110s"/>
<rect x="104" y="72" width="11" height="11" rx="2.5" fill="#161b22" class="c" style="animation-delay:0.132s"/>
<rect x="104" y="86" width="11" height="11" rx="2.5" fill="#161b22" class="c" style="animation-delay:0.154s"/>
<rect x="104" y="100" width="11" height="11" rx="2.5" fill="#161b22" class="c" style="animation-delay:0.176s"/>
<rect x="104" y="114" width="11" height="11" rx="2.5" fill="#161b22" class="c" style="animation-delay:0.198s"/>
<rect x="104" y="128" width="11" height="11" rx="2.5" fill="#161b22" class="c" style="animation-delay:0.220s"/>
<rect x="118" y="44" width="11" height="11" rx="2.5" fill="#161b22" class="c" style="animation-delay:0.110s"/>
<rect x="118" y="58" width="11" height="11" rx="2.5" fill="#161b22" class="c" style="animation-delay:0.132s"/>
<rect x="118" y="72" width="11" height="11" rx="2.5" fill="#161b22" class="c" style="animation-delay:0.154s"/>
<rect x="118" y="86" width="11" height="11" rx="2.5" fill="#161b22" class="c" style="animation-delay:0.176s"/>
<rect x="118" y="100" width="11" height="11" rx="2.5" fill="#161b22" class="c" style="animation-delay:0.198s"/>
<rect x="118" y="114" width="11" height="11" rx="2.5" fill="#161b22" class="c" style="animation-delay:0.220s"/>
<rect x="118" y="128" width="11" height="11" rx="2.5" fill="#161b22" class="c" style="animation-delay:0.242s"/>
<rect x="132" y="44" width="11" height="11" rx="2.5" fill="#161b22" class="c" style="animation-delay:0.132s"/>
<rect x="132" y="58" width="11" height="11" rx="2.5" fill="#161b22" class="c" style="animation-delay:0.154s"/>
<rect x="132" y="72" width="11" height="11" rx="2.5" fill="#161b22" class="c" style="animation-delay:0.176s"/>
<rect x="132" y="86" width="11" height="11" rx="2.5" fill="#161b22" class="c" style="animation-delay:0.198s"/>
<rect x="132" y="100" width="11" height="11" rx="2.5" fill="#161b22" class="c" style="animation-delay:0.220s"/>
<rect x="132" y="114" width="11" height="11" rx="2.5" fill="#161b22" class="c" style="animation-delay:0.242s"/>
<rect x="132" y="128" width="11" height="11" rx="2.5" fill="#161b22" class="c" style="animation-delay:0.264s"/>
<rect x="146" y="44" width="11" height="11" rx="2.5" fill="#161b22" class="c" style="animation-delay:0.154s"/>
<rect x="146" y="58" width="11" height="11" rx="2.5" fill="#161b22" class="c" style="animation-delay:0.176s"/>
<rect x="146" y="72" width="11" height="11" rx="2.5" fill="#161b22" class="c" style="animation-delay:0.198s"/>
<rect x="146" y="86" width="11" height="11" rx="2.5" fill="#161b22" class="c" style="animation-delay:0.220s"/>
<rect x="146" y="100" width="11" height="11" rx="2.5" fill="#161b22" class="c" style="animation-delay:0.242s"/>
<rect x="146" y="114" width="11" height="11" rx="2.5" fill="#161b22" class="c" style="animation-delay:0.264s"/>
<rect x="146" y="128" width="11" height="11" rx="2.5" fill="#161b22" class="c" style="animation-delay:0.286s"/>
<rect x="160" y="44" width="11" height="11" rx="2.5" fill="#161b22" class="c" style="animation-delay:0.176s"/>
<rect x="160" y="58" width="11" height="11" rx="2.5" fill="#161b22" class="c" style="animation-delay:0.198s"/>
<rect x="160" y="72" width="11" height="11" rx="2.5" fill="#161b22" class="c" style="animation-delay:0.220s"/>
<rect x="160" y="86" width="11" height="11" rx="2.5" fill="#161b22" class="c" style="animation-delay:0.242s"/>
<rect x="160" y="100" width="11" height="11" rx="2.5" fill="#161b22" class="c" style="animation-delay:0.264s"/>
<rect x="160" y="114" width="11" height="11" rx="2.5" fill="#161b22" class="c" style="animation-delay:0.286s"/>
<rect x="160" y="128" width="11" height="11" rx="2.5" fill="#161b22" class="c" style="animation-delay:0.308s"/>
<rect x="174" y="44" width="11" height="11" rx="2.5" fill="#161b22" class="c" style="animation-delay:0.198s"/>
<rect x="174" y="58" width="11" height="11" rx="2.5" fill="#161b22" class="c" style="animation-delay:0.220s"/>
<rect x="174" y="72" width="11" height="11" rx="2.5" fill="#161b22" class="c" style="animation-delay:0.242s"/>
<rect x="174" y="86" width="11" height="11" rx="2.5" fill="#161b22" class="c" style="animation-delay:0.264s"/>
<rect x="174" y="100" width="11" height="11" rx="2.5" fill="#161b22" class="c" style="animation-delay:0.286s"/>
<rect x="174" y="114" width="11" height="11" rx="2.5" fill="#161b22" class="c" style="animation-delay:0.308s"/>
<rect x="174" y="128" width="11" height="11" rx="2.5" fill="#161b22" class="c" style="animation-delay:0.330s"/>
<rect x="188" y="44" width="11" height="11" rx="2.5" fill="#161b22" class="c" style="animation-delay:0.220s"/>
<rect x="188" y="58" width="11" height="11" rx="2.5" fill="#161b22" class="c" style="animation-delay:0.242s"/>
<rect x="188" y="72" width="11" height="11" rx="2.5" fill="#161b22" class="c" style="animation-delay:0.264s"/>
<rect x="188" y="86" width="11" height="11" rx="2.5" fill="#161b22" class="c" style="animation-delay:0.286s"/>
<rect x="188" y="100" width="11" height="11" rx="2.5" fill="#161b22" class="c" style="animation-delay:0.308s"/>
<rect x="188" y="114" width="11" height="11" rx="2.5" fill="#161b22" class="c" style="animation-delay:0.330s"/>
<rect x="188" y="128" width="11" height="11" rx="2.5" fill="#161b22" class="c" style="animation-delay:0.352s"/>
<rect x="202" y="44" width="11" height="11" rx="2.5" fill="#161b22" class="c" style="animation-delay:0.242s"/>
<rect x="202" y="58" width="11" height="11" rx="2.5" fill="#161b22" class="c" style="animation-delay:0.264s"/>
<rect x="202" y="72" width="11" height="11" rx="2.5" fill="#161b22" class="c" style="animation-delay:0.286s"/>
<rect x="202" y="86" width="11" height="11" rx="2.5" fill="#161b22" class="c" style="animation-delay:0.308s"/>
<rect x="202" y="100" width="11" height="11" rx="2.5" fill="#161b22" class="c" style="animation-delay:0.330s"/>
<rect x="202" y="114" width="11" height="11" rx="2.5" fill="#161b22" class="c" style="animation-delay:0.352s"/>
<rect x="202" y="128" width="11" height="11" rx="2.5" fill="#161b22" class="c" style="animation-delay:0.374s"/>
<rect x="216" y="44" width="11" height="11" rx="2.5" fill="#161b22" class="c" style="animation-delay:0.264s"/>
<rect x="216" y="58" width="11" height="11" rx="2.5" fill="#161b22" class="c" style="animation-delay:0.286s"/>
<rect x="216" y="72" width="11" height="11" rx="2.5" fill="#161b22" class="c" style="animation-delay:0.308s"/>
<rect x="216" y="86" width="11" height="11" rx="2.5" fill="#161b22" class="c" style="animation-delay:0.330s"/>
<rect x="216" y="100" width="11" height="11" rx="2.5" fill="#161b22" class="c" style="animation-delay:0.352s"/>
<rect x="216" y="114" width="11" height="11" rx="2.5" fill="#161b22" class="c" style="animation-delay:0.374s"/>
<rect x="216" y="128" width="11" height="11" rx="2.5" fill="#161b22" class="c" style="animation-delay:0.396s"/>
<rect x="230" y="44" width="11" height="11" rx="2.5" fill="#161b22" class="c" style="animation-delay:0.286s"/>
<rect x="230" y="58" width="11" height="11" rx="2.5" fill="#161b22" class="c" style="animation-delay:0.308s"/>
<rect x="230" y="72" width="11" height="11" rx="2.5" fill="#161b22" class="c" style="animation-delay:0.330s"/>
<rect x="230" y="86" width="11" height="11" rx="2.5" fill="#161b22" class="c" style="animation-delay:0.352s"/>
<rect x="230" y="100" width="11" height="11" rx="2.5" fill="#161b22" class="c" style="animation-delay:0.374s"/>
<rect x="230" y="114" width="11" height="11" rx="2.5" fill="#161b22" class="c" style="animation-delay:0.396s"/>
<rect x="230" y="128" width="11" height="11" rx="2.5" fill="#161b22" class="c" style="animation-delay:0.418s"/>
<rect x="244" y="44" width="11" height="11" rx="2.5" fill="#161b22" class="c" style="animation-delay:0.308s"/>
<rect x="244" y="58" width="11" height="11" rx="2.5" fill="#161b22" class="c" style="animation-delay:0.330s"/>
<rect x="244" y="72" width="11" height="11" rx="2.5" fill="#161b22" class="c" style="animation-delay:0.352s"/>
<rect x="244" y="86" width="11" height="11" rx="2.5" fill="#161b22" class="c" style="animation-delay:0.374s"/>
<rect x="244" y="100" width="11" height="11" rx="2.5" fill="#161b22" class="c" style="animation-delay:0.396s"/>
<rect x="244" y="114" width="11" height="11" rx="2.5" fill="#161b22" class="c" style="animation-delay:0.418s"/>
<rect x="244" y="128" width="11" height="11" rx="2.5" fill="#161b22" class="c" style="animation-delay:0.440s"/>
<rect x="258" y="44" width="11" height="11" rx="2.5" fill="#161b22" class="c" style="animation-delay:0.330s"/>
<rect x="258" y="58" width="11" height="11" rx="2.5" fill="#161b22" class="c" style="animation-delay:0.352s"/>
<rect x="258" y="72" width="11" height="11" rx="2.5" fill="#161b22" class="c" style="animation-delay:0.374s"/>
<rect x="258" y="86" width="11" height="11" rx="2.5" fill="#161b22" class="c" style="animation-delay:0.396s"/>
<rect x="258" y="100" width="11" height="11" rx="2.5" fill="#161b22" class="c" style="animation-delay:0.418s"/>
<rect x="258" y="114" width="11" height="11" rx="2.5" fill="#161b22" class="c" style="animation-delay:0.440s"/>
<rect x="258" y="128" width="11" height="11" rx="2.5" fill="#161b22" class="c" style="animation-delay:0.462s"/>
<rect x="272" y="44" width="11" height="11" rx="2.5" fill="#161b22" class="c" style="animation-delay:0.352s"/>
<rect x="272" y="58" width="11" height="11" rx="2.5" fill="#161b22" class="c" style="animation-delay:0.374s"/>
<rect x="272" y="72" width="11" height="11" rx="2.5" fill="#161b22" class="c" style="animation-delay:0.396s"/>
<rect x="272" y="86" width="11" height="11" rx="2.5" fill="#161b22" class="c" style="animation-delay:0.418s"/>
<rect x="272" y="100" width="11" height="11" rx="2.5" fill="#161b22" class="c" style="animation-delay:0.440s"/>
<rect x="272" y="114" width="11" height="11" rx="2.5" fill="#161b22" class="c" style="animation-delay:0.462s"/>
<rect x="272" y="128" width="11" height="11" rx="2.5" fill="#161b22" class="c" style="animation-delay:0.484s"/>
<rect x="286" y="44" width="11" height="11" rx="2.5" fill="#0e4429" class="c" style="animation-delay:0.374s"/>
<rect x="286" y="58" width="11" height="11" rx="2.5" fill="#0e4429" class="c" style="animation-delay:0.396s"/>
<rect x="286" y="72" width="11" height="11" rx="2.5" fill="#0e4429" class="c" style="animation-delay:0.418s"/>
<rect x="286" y="86" width="11" height="11" rx="2.5" fill="#0e4429" class="c" style="animation-delay:0.440s"/>
<rect x="286" y="100" width="11" height="11" rx="2.5" fill="#161b22" class="c" style="animation-delay:0.462s"/>
<rect x="286" y="114" width="11" height="11" rx="2.5" fill="#161b22" class="c" style="animation-delay:0.484s"/>
<rect x="286" y="128" width="11" height="11" rx="2.5" fill="#161b22" class="c" style="animation-delay:0.506s"/>
<rect x="300" y="44" width="11" height="11" rx="2.5" fill="#161b22" class="c" style="animation-delay:0.396s"/>
<rect x="300" y="58" width="11" height="11" rx="2.5" fill="#161b22" class="c" style="animation-delay:0.418s"/>
<rect x="300" y="72" width="11" height="11" rx="2.5" fill="#161b22" class="c" style="animation-delay:0.440s"/>
<rect x="300" y="86" width="11" height="11" rx="2.5" fill="#161b22" class="c" style="animation-delay:0.462s"/>
<rect x="300" y="100" width="11" height="11" rx="2.5" fill="#161b22" class="c" style="animation-delay:0.484s"/>
<rect x="300" y="114" width="11" height="11" rx="2.5" fill="#161b22" class="c" style="animation-delay:0.506s"/>
<rect x="300" y="128" width="11" height="11" rx="2.5" fill="#161b22" class="c" style="animation-delay:0.528s"/>
<rect x="314" y="44" width="11" height="11" rx="2.5" fill="#161b22" class="c" style="animation-delay:0.418s"/>
<rect x="314" y="58" width="11" height="11" rx="2.5" fill="#161b22" class="c" style="animation-delay:0.440s"/>
<rect x="314" y="72" width="11" height="11" rx="2.5" fill="#161b22" class="c" style="animation-delay:0.462s"/>
<rect x="314" y="86" width="11" height="11" rx="2.5" fill="#161b22" class="c" style="animation-delay:0.484s"/>
<rect x="314" y="100" width="11" height="11" rx="2.5" fill="#161b22" class="c" style="animation-delay:0.506s"/>
<rect x="314" y="114" width="11" height="11" rx="2.5" fill="#161b22" class="c" style="animation-delay:0.528s"/>
<rect x="314" y="128" width="11" height="11" rx="2.5" fill="#161b22" class="c" style="animation-delay:0.550s"/>
<rect x="328" y="44" width="11" height="11" rx="2.5" fill="#161b22" class="c" style="animation-delay:0.440s"/>
<rect x="328" y="58" width="11" height="11" rx="2.5" fill="#161b22" class="c" style="animation-delay:0.462s"/>
<rect x="328" y="72" width="11" height="11" rx="2.5" fill="#161b22" class="c" style="animation-delay:0.484s"/>
<rect x="328" y="86" width="11" height="11" rx="2.5" fill="#161b22" class="c" style="animation-delay:0.506s"/>
<rect x="328" y="100" width="11" height="11" rx="2.5" fill="#161b22" class="c" style="animation-delay:0.528s"/>
<rect x="328" y="114" width="11" height="11" rx="2.5" fill="#161b22" class="c" style="animation-delay:0.550s"/>
<rect x="328" y="128" width="11" height="11" rx="2.5" fill="#161b22" class="c" style="animation-delay:0.572s"/>
<rect x="342" y="44" width="11" height="11" rx="2.5" fill="#161b22" class="c" style="animation-delay:0.462s"/>
<rect x="342" y="58" width="11" height="11" rx="2.5" fill="#161b22" class="c" style="animation-delay:0.484s"/>
<rect x="342" y="72" width="11" height="11" rx="2.5" fill="#161b22" class="c" style="animation-delay:0.506s"/>
<rect x="342" y="86" width="11" height="11" rx="2.5" fill="#161b22" class="c" style="animation-delay:0.528s"/>
<rect x="342" y="100" width="11" height="11" rx="2.5" fill="#161b22" class="c" style="animation-delay:0.550s"/>
<rect x="342" y="114" width="11" height="11" rx="2.5" fill="#161b22" class="c" style="animation-delay:0.572s"/>
<rect x="342" y="128" width="11" height="11" rx="2.5" fill="#161b22" class="c" style="animation-delay:0.594s"/>
<rect x="356" y="44" width="11" height="11" rx="2.5" fill="#161b22" class="c" style="animation-delay:0.484s"/>
<rect x="356" y="58" width="11" height="11" rx="2.5" fill="#161b22" class="c" style="animation-delay:0.506s"/>
<rect x="356" y="72" width="11" height="11" rx="2.5" fill="#161b22" class="c" style="animation-delay:0.528s"/>
<rect x="356" y="86" width="11" height="11" rx="2.5" fill="#161b22" class="c" style="animation-delay:0.550s"/>
<rect x="356" y="100" width="11" height="11" rx="2.5" fill="#161b22" class="c" style="animation-delay:0.572s"/>
<rect x="356" y="114" width="11" height="11" rx="2.5" fill="#161b22" class="c" style="animation-delay:0.594s"/>
<rect x="356" y="128" width="11" height="11" rx="2.5" fill="#161b22" class="c" style="animation-delay:0.616s"/>
<rect x="370" y="44" width="11" height="11" rx="2.5" fill="#161b22" class="c" style="animation-delay:0.506s"/>
<rect x="370" y="58" width="11" height="11" rx="2.5" fill="#161b22" class="c" style="animation-delay:0.528s"/>
<rect x="370" y="72" width="11" height="11" rx="2.5" fill="#161b22" class="c" style="animation-delay:0.550s"/>
<rect x="370" y="86" width="11" height="11" rx="2.5" fill="#161b22" class="c" style="animation-delay:0.572s"/>
<rect x="370" y="100" width="11" height="11" rx="2.5" fill="#161b22" class="c" style="animation-delay:0.594s"/>
<rect x="370" y="114" width="11" height="11" rx="2.5" fill="#161b22" class="c" style="animation-delay:0.616s"/>
<rect x="370" y="128" width="11" height="11" rx="2.5" fill="#161b22" class="c" style="animation-delay:0.638s"/>
<rect x="384" y="44" width="11" height="11" rx="2.5" fill="#161b22" class="c" style="animation-delay:0.528s"/>
<rect x="384" y="58" width="11" height="11" rx="2.5" fill="#161b22" class="c" style="animation-delay:0.550s"/>
<rect x="384" y="72" width="11" height="11" rx="2.5" fill="#161b22" class="c" style="animation-delay:0.572s"/>
<rect x="384" y="86" width="11" height="11" rx="2.5" fill="#161b22" class="c" style="animation-delay:0.594s"/>
<rect x="384" y="100" width="11" height="11" rx="2.5" fill="#161b22" class="c" style="animation-delay:0.616s"/>
<rect x="384" y="114" width="11" height="11" rx="2.5" fill="#161b22" class="c" style="animation-delay:0.638s"/>
<rect x="384" y="128" width="11" height="11" rx="2.5" fill="#161b22" class="c" style="animation-delay:0.660s"/>
<rect x="398" y="44" width="11" height="11" rx="2.5" fill="#161b22" class="c" style="animation-delay:0.550s"/>
<rect x="398" y="58" width="11" height="11" rx="2.5" fill="#161b22" class="c" style="animation-delay:0.572s"/>
<rect x="398" y="72" width="11" height="11" rx="2.5" fill="#161b22" class="c" style="animation-delay:0.594s"/>
<rect x="398" y="86" width="11" height="11" rx="2.5" fill="#161b22" class="c" style="animation-delay:0.616s"/>
<rect x="398" y="100" width="11" height="11" rx="2.5" fill="#161b22" class="c" style="animation-delay:0.638s"/>
<rect x="398" y="114" width="11" height="11" rx="2.5" fill="#161b22" class="c" style="animation-delay:0.660s"/>
<rect x="398" y="128" width="11" height="11" rx="2.5" fill="#161b22" class="c" style="animation-delay:0.682s"/>
<rect x="412" y="44" width="11" height="11" rx="2.5" fill="#161b22" class="c" style="animation-delay:0.572s"/>
<rect x="412" y="58" width="11" height="11" rx="2.5" fill="#161b22" class="c" style="animation-delay:0.594s"/>
<rect x="412" y="72" width="11" height="11" rx="2.5" fill="#161b22" class="c" style="animation-delay:0.616s"/>
<rect x="412" y="86" width="11" height="11" rx="2.5" fill="#161b22" class="c" style="animation-delay:0.638s"/>
<rect x="412" y="100" width="11" height="11" rx="2.5" fill="#161b22" class="c" style="animation-delay:0.660s"/>
<rect x="412" y="114" width="11" height="11" rx="2.5" fill="#161b22" class="c" style="animation-delay:0.682s"/>
<rect x="412" y="128" width="11" height="11" rx="2.5" fill="#161b22" class="c" style="animation-delay:0.704s"/>
<rect x="426" y="44" width="11" height="11" rx="2.5" fill="#161b22" class="c" style="animation-delay:0.594s"/>
<rect x="426" y="58" width="11" height="11" rx="2.5" fill="#161b22" class="c" style="animation-delay:0.616s"/>
<rect x="426" y="72" width="11" height="11" rx="2.5" fill="#161b22" class="c" style="animation-delay:0.638s"/>
<rect x="426" y="86" width="11" height="11" rx="2.5" fill="#161b22" class="c" style="animation-delay:0.660s"/>
<rect x="426" y="100" width="11" height="11" rx="2.5" fill="#161b22" class="c" style="animation-delay:0.682s"/>
<rect x="426" y="114" width="11" height="11" rx="2.5" fill="#161b22" class="c" style="animation-delay:0.704s"/>
<rect x="426" y="128" width="11" height="11" rx="2.5" fill="#161b22" class="c" style="animation-delay:0.726s"/>
<rect x="440" y="44" width="11" height="11" rx="2.5" fill="#161b22" class="c" style="animation-delay:0.616s"/>
<rect x="440" y="58" width="11" height="11" rx="2.5" fill="#161b22" class="c" style="animation-delay:0.638s"/>
<rect x="440" y="72" width="11" height="11" rx="2.5" fill="#161b22" class="c" style="animation-delay:0.660s"/>
<rect x="440" y="86" width="11" height="11" rx="2.5" fill="#161b22" class="c" style="animation-delay:0.682s"/>
<rect x="440" y="100" width="11" height="11" rx="2.5" fill="#161b22" class="c" style="animation-delay:0.704s"/>
<rect x="440" y="114" width="11" height="11" rx="2.5" fill="#161b22" class="c" style="animation-delay:0.726s"/>
<rect x="440" y="128" width="11" height="11" rx="2.5" fill="#161b22" class="c" style="animation-delay:0.748s"/>
<rect x="454" y="44" width="11" height="11" rx="2.5" fill="#161b22" class="c" style="animation-delay:0.638s"/>
<rect x="454" y="58" width="11" height="11" rx="2.5" fill="#0e4429" class="c" style="animation-delay:0.660s"/>
<rect x="454" y="72" width="11" height="11" rx="2.5" fill="#161b22" class="c" style="animation-delay:0.682s"/>
<rect x="454" y="86" width="11" height="11" rx="2.5" fill="#161b22" class="c" style="animation-delay:0.704s"/>
<rect x="454" y="100" width="11" height="11" rx="2.5" fill="#161b22" class="c" style="animation-delay:0.726s"/>
<rect x="454" y="114" width="11" height="11" rx="2.5" fill="#161b22" class="c" style="animation-delay:0.748s"/>
<rect x="454" y="128" width="11" height="11" rx="2.5" fill="#161b22" class="c" style="animation-delay:0.770s"/>
<rect x="468" y="44" width="11" height="11" rx="2.5" fill="#161b22" class="c" style="animation-delay:0.660s"/>
<rect x="468" y="58" width="11" height="11" rx="2.5" fill="#161b22" class="c" style="animation-delay:0.682s"/>
<rect x="468" y="72" width="11" height="11" rx="2.5" fill="#006d32" class="c" style="animation-delay:0.704s"/>
<rect x="468" y="86" width="11" height="11" rx="2.5" fill="#0e4429" class="c" style="animation-delay:0.726s"/>
<rect x="468" y="100" width="11" height="11" rx="2.5" fill="#39d353" class="c" style="animation-delay:0.748s"/>
<rect x="468" y="114" width="11" height="11" rx="2.5" fill="#161b22" class="c" style="animation-delay:0.770s"/>
<rect x="468" y="128" width="11" height="11" rx="2.5" fill="#0e4429" class="c" style="animation-delay:0.792s"/>
<rect x="482" y="44" width="11" height="11" rx="2.5" fill="#0e4429" class="c" style="animation-delay:0.682s"/>
<rect x="482" y="58" width="11" height="11" rx="2.5" fill="#0e4429" class="c" style="animation-delay:0.704s"/>
<rect x="482" y="72" width="11" height="11" rx="2.5" fill="#0e4429" class="c" style="animation-delay:0.726s"/>
<rect x="482" y="86" width="11" height="11" rx="2.5" fill="#161b22" class="c" style="animation-delay:0.748s"/>
<rect x="482" y="100" width="11" height="11" rx="2.5" fill="#161b22" class="c" style="animation-delay:0.770s"/>
<rect x="482" y="114" width="11" height="11" rx="2.5" fill="#161b22" class="c" style="animation-delay:0.792s"/>
<rect x="482" y="128" width="11" height="11" rx="2.5" fill="#161b22" class="c" style="animation-delay:0.814s"/>
<rect x="496" y="44" width="11" height="11" rx="2.5" fill="#161b22" class="c" style="animation-delay:0.704s"/>
<rect x="496" y="58" width="11" height="11" rx="2.5" fill="#161b22" class="c" style="animation-delay:0.726s"/>
<rect x="496" y="72" width="11" height="11" rx="2.5" fill="#161b22" class="c" style="animation-delay:0.748s"/>
<rect x="496" y="86" width="11" height="11" rx="2.5" fill="#161b22" class="c" style="animation-delay:0.770s"/>
<rect x="496" y="100" width="11" height="11" rx="2.5" fill="#0e4429" class="c" style="animation-delay:0.792s"/>
<rect x="496" y="114" width="11" height="11" rx="2.5" fill="#161b22" class="c" style="animation-delay:0.814s"/>
<rect x="496" y="128" width="11" height="11" rx="2.5" fill="#0e4429" class="c" style="animation-delay:0.836s"/>
<rect x="510" y="44" width="11" height="11" rx="2.5" fill="#0e4429" class="c" style="animation-delay:0.726s"/>
<rect x="510" y="58" width="11" height="11" rx="2.5" fill="#161b22" class="c" style="animation-delay:0.748s"/>
<rect x="510" y="72" width="11" height="11" rx="2.5" fill="#161b22" class="c" style="animation-delay:0.770s"/>
<rect x="510" y="86" width="11" height="11" rx="2.5" fill="#161b22" class="c" style="animation-delay:0.792s"/>
<rect x="510" y="100" width="11" height="11" rx="2.5" fill="#161b22" class="c" style="animation-delay:0.814s"/>
<rect x="510" y="114" width="11" height="11" rx="2.5" fill="#161b22" class="c" style="animation-delay:0.836s"/>
<rect x="510" y="128" width="11" height="11" rx="2.5" fill="#0e4429" class="c" style="animation-delay:0.858s"/>
<rect x="524" y="44" width="11" height="11" rx="2.5" fill="#161b22" class="c" style="animation-delay:0.748s"/>
<rect x="524" y="58" width="11" height="11" rx="2.5" fill="#161b22" class="c" style="animation-delay:0.770s"/>
<rect x="524" y="72" width="11" height="11" rx="2.5" fill="#161b22" class="c" style="animation-delay:0.792s"/>
<rect x="524" y="86" width="11" height="11" rx="2.5" fill="#161b22" class="c" style="animation-delay:0.814s"/>
<rect x="524" y="100" width="11" height="11" rx="2.5" fill="#161b22" class="c" style="animation-delay:0.836s"/>
<rect x="524" y="114" width="11" height="11" rx="2.5" fill="#161b22" class="c" style="animation-delay:0.858s"/>
<rect x="524" y="128" width="11" height="11" rx="2.5" fill="#161b22" class="c" style="animation-delay:0.880s"/>
<rect x="538" y="44" width="11" height="11" rx="2.5" fill="#161b22" class="c" style="animation-delay:0.770s"/>
<rect x="538" y="58" width="11" height="11" rx="2.5" fill="#161b22" class="c" style="animation-delay:0.792s"/>
<rect x="538" y="72" width="11" height="11" rx="2.5" fill="#0e4429" class="c" style="animation-delay:0.814s"/>
<rect x="538" y="86" width="11" height="11" rx="2.5" fill="#161b22" class="c" style="animation-delay:0.836s"/>
<rect x="538" y="100" width="11" height="11" rx="2.5" fill="#161b22" class="c" style="animation-delay:0.858s"/>
<rect x="538" y="114" width="11" height="11" rx="2.5" fill="#161b22" class="c" style="animation-delay:0.880s"/>
<rect x="538" y="128" width="11" height="11" rx="2.5" fill="#161b22" class="c" style="animation-delay:0.902s"/>
<rect x="552" y="44" width="11" height="11" rx="2.5" fill="#161b22" class="c" style="animation-delay:0.792s"/>
<rect x="552" y="58" width="11" height="11" rx="2.5" fill="#161b22" class="c" style="animation-delay:0.814s"/>
<rect x="552" y="72" width="11" height="11" rx="2.5" fill="#161b22" class="c" style="animation-delay:0.836s"/>
<rect x="552" y="86" width="11" height="11" rx="2.5" fill="#161b22" class="c" style="animation-delay:0.858s"/>
<rect x="552" y="100" width="11" height="11" rx="2.5" fill="#161b22" class="c" style="animation-delay:0.880s"/>
<rect x="552" y="114" width="11" height="11" rx="2.5" fill="#161b22" class="c" style="animation-delay:0.902s"/>
<rect x="552" y="128" width="11" height="11" rx="2.5" fill="#161b22" class="c" style="animation-delay:0.924s"/>
<rect x="566" y="44" width="11" height="11" rx="2.5" fill="#161b22" class="c" style="animation-delay:0.814s"/>
<rect x="566" y="58" width="11" height="11" rx="2.5" fill="#161b22" class="c" style="animation-delay:0.836s"/>
<rect x="566" y="72" width="11" height="11" rx="2.5" fill="#161b22" class="c" style="animation-delay:0.858s"/>
<rect x="566" y="86" width="11" height="11" rx="2.5" fill="#161b22" class="c" style="animation-delay:0.880s"/>
<rect x="566" y="100" width="11" height="11" rx="2.5" fill="#161b22" class="c" style="animation-delay:0.902s"/>
<rect x="566" y="114" width="11" height="11" rx="2.5" fill="#161b22" class="c" style="animation-delay:0.924s"/>
<rect x="566" y="128" width="11" height="11" rx="2.5" fill="#161b22" class="c" style="animation-delay:0.946s"/>
<rect x="580" y="44" width="11" height="11" rx="2.5" fill="#161b22" class="c" style="animation-delay:0.836s"/>
<rect x="580" y="58" width="11" height="11" rx="2.5" fill="#161b22" class="c" style="animation-delay:0.858s"/>
<rect x="580" y="72" width="11" height="11" rx="2.5" fill="#0e4429" class="c" style="animation-delay:0.880s"/>
<rect x="580" y="86" width="11" height="11" rx="2.5" fill="#0e4429" class="c" style="animation-delay:0.902s"/>
<rect x="580" y="100" width="11" height="11" rx="2.5" fill="#0e4429" class="c" style="animation-delay:0.924s"/>
<rect x="580" y="114" width="11" height="11" rx="2.5" fill="#161b22" class="c" style="animation-delay:0.946s"/>
<rect x="580" y="128" width="11" height="11" rx="2.5" fill="#0e4429" class="c" style="animation-delay:0.968s"/>
<rect x="594" y="44" width="11" height="11" rx="2.5" fill="#161b22" class="c" style="animation-delay:0.858s"/>
<rect x="594" y="58" width="11" height="11" rx="2.5" fill="#161b22" class="c" style="animation-delay:0.880s"/>
<rect x="594" y="72" width="11" height="11" rx="2.5" fill="#161b22" class="c" style="animation-delay:0.902s"/>
<rect x="594" y="86" width="11" height="11" rx="2.5" fill="#0e4429" class="c" style="animation-delay:0.924s"/>
<rect x="594" y="100" width="11" height="11" rx="2.5" fill="#0e4429" class="c" style="animation-delay:0.946s"/>
<rect x="594" y="114" width="11" height="11" rx="2.5" fill="#161b22" class="c" style="animation-delay:0.968s"/>
<rect x="594" y="128" width="11" height="11" rx="2.5" fill="#161b22" class="c" style="animation-delay:0.990s"/>
<rect x="608" y="44" width="11" height="11" rx="2.5" fill="#161b22" class="c" style="animation-delay:0.880s"/>
<rect x="608" y="58" width="11" height="11" rx="2.5" fill="#006d32" class="c" style="animation-delay:0.902s"/>
<rect x="608" y="72" width="11" height="11" rx="2.5" fill="#26a641" class="c" style="animation-delay:0.924s"/>
<rect x="608" y="86" width="11" height="11" rx="2.5" fill="#006d32" class="c" style="animation-delay:0.946s"/>
<rect x="608" y="100" width="11" height="11" rx="2.5" fill="#0e4429" class="c" style="animation-delay:0.968s"/>
<rect x="608" y="114" width="11" height="11" rx="2.5" fill="#006d32" class="c" style="animation-delay:0.990s"/>
<rect x="608" y="128" width="11" height="11" rx="2.5" fill="#006d32" class="c" style="animation-delay:1.012s"/>
<rect x="622" y="44" width="11" height="11" rx="2.5" fill="#161b22" class="c" style="animation-delay:0.902s"/>
<rect x="622" y="58" width="11" height="11" rx="2.5" fill="#161b22" class="c" style="animation-delay:0.924s"/>
<rect x="622" y="72" width="11" height="11" rx="2.5" fill="#006d32" class="c" style="animation-delay:0.946s"/>
<rect x="622" y="86" width="11" height="11" rx="2.5" fill="#006d32" class="c" style="animation-delay:0.968s"/>
<rect x="622" y="100" width="11" height="11" rx="2.5" fill="#69f0a0" class="c" style="animation-delay:0.990s"/>
<rect x="622" y="114" width="11" height="11" rx="2.5" fill="#006d32" class="c" style="animation-delay:1.012s"/>
<rect x="622" y="128" width="11" height="11" rx="2.5" fill="#006d32" class="c" style="animation-delay:1.034s"/>
<rect x="636" y="44" width="11" height="11" rx="2.5" fill="#0e4429" class="c" style="animation-delay:0.924s"/>
<rect x="636" y="58" width="11" height="11" rx="2.5" fill="#0e4429" class="c" style="animation-delay:0.946s"/>
<rect x="636" y="72" width="11" height="11" rx="2.5" fill="#0e4429" class="c" style="animation-delay:0.968s"/>
<rect x="636" y="86" width="11" height="11" rx="2.5" fill="#0e4429" class="c" style="animation-delay:0.990s"/>
<rect x="636" y="100" width="11" height="11" rx="2.5" fill="#161b22" class="c" style="animation-delay:1.012s"/>
<rect x="636" y="114" width="11" height="11" rx="2.5" fill="#161b22" class="c" style="animation-delay:1.034s"/>
<rect x="636" y="128" width="11" height="11" rx="2.5" fill="#0e4429" class="c" style="animation-delay:1.056s"/>
<rect x="650" y="44" width="11" height="11" rx="2.5" fill="#161b22" class="c" style="animation-delay:0.946s"/>
<rect x="650" y="58" width="11" height="11" rx="2.5" fill="#161b22" class="c" style="animation-delay:0.968s"/>
<rect x="650" y="72" width="11" height="11" rx="2.5" fill="#161b22" class="c" style="animation-delay:0.990s"/>
<rect x="650" y="86" width="11" height="11" rx="2.5" fill="#161b22" class="c" style="animation-delay:1.012s"/>
<rect x="650" y="100" width="11" height="11" rx="2.5" fill="#161b22" class="c" style="animation-delay:1.034s"/>
<rect x="650" y="114" width="11" height="11" rx="2.5" fill="#006d32" class="c" style="animation-delay:1.056s"/>
<rect x="650" y="128" width="11" height="11" rx="2.5" fill="#006d32" class="c" style="animation-delay:1.078s"/>
<rect x="664" y="44" width="11" height="11" rx="2.5" fill="#161b22" class="c" style="animation-delay:0.968s"/>
<rect x="664" y="58" width="11" height="11" rx="2.5" fill="#006d32" class="c" style="animation-delay:0.990s"/>
<rect x="664" y="72" width="11" height="11" rx="2.5" fill="#161b22" class="c" style="animation-delay:1.012s"/>
<rect x="664" y="86" width="11" height="11" rx="2.5" fill="#0e4429" class="c" style="animation-delay:1.034s"/>
<rect x="664" y="100" width="11" height="11" rx="2.5" fill="#161b22" class="c" style="animation-delay:1.056s"/>
<rect x="664" y="114" width="11" height="11" rx="2.5" fill="#161b22" class="c" style="animation-delay:1.078s"/>
<rect x="664" y="128" width="11" height="11" rx="2.5" fill="#161b22" class="c" style="animation-delay:1.100s"/>
<rect x="678" y="44" width="11" height="11" rx="2.5" fill="#161b22" class="c" style="animation-delay:0.990s"/>
<rect x="678" y="58" width="11" height="11" rx="2.5" fill="#161b22" class="c" style="animation-delay:1.012s"/>
<rect x="678" y="72" width="11" height="11" rx="2.5" fill="#161b22" class="c" style="animation-delay:1.034s"/>
<rect x="678" y="86" width="11" height="11" rx="2.5" fill="#161b22" class="c" style="animation-delay:1.056s"/>
<rect x="678" y="100" width="11" height="11" rx="2.5" fill="#161b22" class="c" style="animation-delay:1.078s"/>
<rect x="678" y="114" width="11" height="11" rx="2.5" fill="#161b22" class="c" style="animation-delay:1.100s"/>
<rect x="678" y="128" width="11" height="11" rx="2.5" fill="#161b22" class="c" style="animation-delay:1.122s"/>
<rect x="692" y="44" width="11" height="11" rx="2.5" fill="#161b22" class="c" style="animation-delay:1.012s"/>
<rect x="692" y="58" width="11" height="11" rx="2.5" fill="#161b22" class="c" style="animation-delay:1.034s"/>
<rect x="692" y="72" width="11" height="11" rx="2.5" fill="#161b22" class="c" style="animation-delay:1.056s"/>
<rect x="692" y="86" width="11" height="11" rx="2.5" fill="#161b22" class="c" style="animation-delay:1.078s"/>
<rect x="692" y="100" width="11" height="11" rx="2.5" fill="#161b22" class="c" style="animation-delay:1.100s"/>
<rect x="692" y="114" width="11" height="11" rx="2.5" fill="#161b22" class="c" style="animation-delay:1.122s"/>
<rect x="692" y="128" width="11" height="11" rx="2.5" fill="#161b22" class="c" style="animation-delay:1.144s"/>
<rect x="706" y="44" width="11" height="11" rx="2.5" fill="#161b22" class="c" style="animation-delay:1.034s"/>
<rect x="706" y="58" width="11" height="11" rx="2.5" fill="#006d32" class="c" style="animation-delay:1.056s"/>
<rect x="706" y="72" width="11" height="11" rx="2.5" fill="#161b22" class="c" style="animation-delay:1.078s"/>
<rect x="706" y="86" width="11" height="11" rx="2.5" fill="#161b22" class="c" style="animation-delay:1.100s"/>
<rect x="706" y="100" width="11" height="11" rx="2.5" fill="#161b22" class="c" style="animation-delay:1.122s"/>
<rect x="706" y="114" width="11" height="11" rx="2.5" fill="#161b22" class="c" style="animation-delay:1.144s"/>
<rect x="706" y="128" width="11" height="11" rx="2.5" fill="#161b22" class="c" style="animation-delay:1.166s"/>
<rect x="720" y="44" width="11" height="11" rx="2.5" fill="#161b22" class="c" style="animation-delay:1.056s"/>
<rect x="720" y="58" width="11" height="11" rx="2.5" fill="#161b22" class="c" style="animation-delay:1.078s"/>
<rect x="720" y="72" width="11" height="11" rx="2.5" fill="#161b22" class="c" style="animation-delay:1.100s"/>
<rect x="720" y="86" width="11" height="11" rx="2.5" fill="#161b22" class="c" style="animation-delay:1.122s"/>
<rect x="720" y="100" width="11" height="11" rx="2.5" fill="#161b22" class="c" style="animation-delay:1.144s"/>
<rect x="720" y="114" width="11" height="11" rx="2.5" fill="#161b22" class="c" style="animation-delay:1.166s"/>
<rect x="720" y="128" width="11" height="11" rx="2.5" fill="#161b22" class="c" style="animation-delay:1.188s"/>
<rect x="734" y="44" width="11" height="11" rx="2.5" fill="#161b22" class="c" style="animation-delay:1.078s"/>
<rect x="734" y="58" width="11" height="11" rx="2.5" fill="#161b22" class="c" style="animation-delay:1.100s"/>
<rect x="734" y="72" width="11" height="11" rx="2.5" fill="#161b22" class="c" style="animation-delay:1.122s"/>
<rect x="734" y="86" width="11" height="11" rx="2.5" fill="#161b22" class="c" style="animation-delay:1.144s"/>
<rect x="734" y="100" width="11" height="11" rx="2.5" fill="#161b22" class="c" style="animation-delay:1.166s"/>
<rect x="734" y="114" width="11" height="11" rx="2.5" fill="#161b22" class="c" style="animation-delay:1.188s"/>
<rect x="734" y="128" width="11" height="11" rx="2.5" fill="#161b22" class="c" style="animation-delay:1.210s"/>
<rect x="748" y="44" width="11" height="11" rx="2.5" fill="#161b22" class="c" style="animation-delay:1.100s"/>
<rect x="748" y="58" width="11" height="11" rx="2.5" fill="#161b22" class="c" style="animation-delay:1.122s"/>
<rect x="748" y="72" width="11" height="11" rx="2.5" fill="#161b22" class="c" style="animation-delay:1.144s"/>
<rect x="748" y="86" width="11" height="11" rx="2.5" fill="#161b22" class="c" style="animation-delay:1.166s"/>
<rect x="748" y="100" width="11" height="11" rx="2.5" fill="#161b22" class="c" style="animation-delay:1.188s"/>
<rect x="748" y="114" width="11" height="11" rx="2.5" fill="#161b22" class="c" style="animation-delay:1.210s"/>
<rect x="748" y="128" width="11" height="11" rx="2.5" fill="#161b22" class="c" style="animation-delay:1.232s"/>
<rect x="762" y="44" width="11" height="11" rx="2.5" fill="#161b22" class="c" style="animation-delay:1.122s"/>
<rect x="762" y="58" width="11" height="11" rx="2.5" fill="#0e4429" class="c" style="animation-delay:1.144s"/>
<rect x="762" y="72" width="11" height="11" rx="2.5" fill="#0e4429" class="c" style="animation-delay:1.166s"/>
<rect x="762" y="86" width="11" height="11" rx="2.5" fill="#161b22" class="c" style="animation-delay:1.188s"/>
<rect x="762" y="100" width="11" height="11" rx="2.5" fill="#0e4429" class="c" style="animation-delay:1.210s"/>
<rect x="762" y="114" width="11" height="11" rx="2.5" fill="#161b22" class="c" style="animation-delay:1.232s"/>
<rect x="762" y="128" width="11" height="11" rx="2.5" fill="#39d353" class="c" style="animation-delay:1.254s"/>
<rect x="776" y="44" width="11" height="11" rx="2.5" fill="#006d32" class="c" style="animation-delay:1.144s"/>
<rect x="776" y="58" width="11" height="11" rx="2.5" fill="#39d353" class="c" style="animation-delay:1.166s"/>
<rect x="776" y="72" width="11" height="11" rx="2.5" fill="#39d353" class="c" style="animation-delay:1.188s"/>
<text x="48" y="165" fill="#8b949e">Less</text>
<rect x="82" y="155" width="11" height="11" rx="2.5" fill="#161b22"/>
<rect x="96" y="155" width="11" height="11" rx="2.5" fill="#0e4429"/>
<rect x="110" y="155" width="11" height="11" rx="2.5" fill="#006d32"/>
<rect x="124" y="155" width="11" height="11" rx="2.5" fill="#26a641"/>
<rect x="138" y="155" width="11" height="11" rx="2.5" fill="#39d353"/>
<rect x="152" y="155" width="11" height="11" rx="2.5" fill="#69f0a0"/>
<text x="170" y="165" fill="#8b949e">More</text>
<text x="787" y="165" text-anchor="end" fill="#c9d1d9">278 contributions in the last year · streak 4d · longest 9d · best 30 on 2026-05-07</text>
</svg>