<svg xmlns="http://www.w3.org/2000/svg" viewBox="0 0 490 290" font-family="ui-monospace, SFMono-Regular, Menlo, Consolas, monospace" font-size="13">
<rect width="490" height="290" rx="10" fill="#0d1117" stroke="#30363d"/>
<style>.l{animation:fi .5s ease-out both}@keyframes fi{from{opacity:0;transform:translateY(5px)}to{opacity:1;transform:none}}</style>
<g class="l" style="animation-delay:0.00s"><text x="22" y="35" fill="#39d353" font-weight="bold">borna@github</text></g>
<g class="l" style="animation-delay:0.35s"><text x="22" y="59" fill="#8b949e" textLength="446" lengthAdjust="spacingAndGlyphs">─────────────────────────────────────────────────────────</text></g>
<g class="l" style="animation-delay:0.70s"><text x="22" y="83" fill="#39d353">Now:</text><text x="100" y="83" fill="#c9d1d9">DRAKE · Antigen · OpportunityOS · SafeWalk</text></g>
<g class="l" style="animation-delay:1.05s"><text x="22" y="107" fill="#39d353">Learning:</text><text x="100" y="107" fill="#c9d1d9">Machine Learning (help welcome!)</text></g>
<g class="l" style="animation-delay:1.40s"><text x="22" y="131" fill="#39d353">Collab:</text><text x="100" y="131" fill="#c9d1d9">Python &amp; ML projects</text></g>
<g class="l" style="animation-delay:1.75s"><text x="22" y="155" fill="#39d353">Ask me:</text><text x="100" y="155" fill="#c9d1d9">Python · Unreal Engine · Unity · Java</text></g>
<g class="l" style="animation-delay:2.10s"><text x="22" y="179" fill="#39d353">Web:</text><text x="100" y="179" fill="#c9d1d9">bornaba.com</text></g>
<g class="l" style="animation-delay:2.45s"><text x="22" y="203" fill="#39d353">LinkedIn:</text><text x="100" y="203" fill="#c9d1d9">in/bornaboyafraz</text></g>
<g class="l" style="animation-delay:2.80s"><text x="22" y="227" fill="#39d353">Email:</text><text x="100" y="227" fill="#c9d1d9">bornaboyafraz@gmail.com</text></g>
<g class="l" style="animation-delay:3.15s"><rect x="22" y="241" width="16" height="16" rx="3" fill="#ff5f56"/><rect x="44" y="241" width="16" height="16" rx="3" fill="#ffbd2e"/><rect x="66" y="241" width="16" height="16" rx="3" fill="#27c93f"/><rect x="88" y="241" width="16" height="16" rx="3" fill="#39d353"/><rect x="110" y="241" width="16" height="16" rx="3" fill="#58a6ff"/><rect x="132" y="241" width="16" height="16" rx="3" fill="#bc8cff"/><rect x="154" y="241" width="16" height="16" rx="3" fill="#f778ba"/><rect x="176" y="241" width="16" height="16" rx="3" fill="#c9d1d9"/></g>
</svg>